<svg width="146" height="30" viewBox="0 0 146 30" fill="none" xmlns="http://www.w3.org/2000/svg">
<path d="M7.76 7.94C11.16 7.94 12.78 10.28 12.78 12.38C12.78 15.68 11.16 17 7.42 17H1.08V0.82H11.22V2.42H2.7V7.94H7.76ZM7.72 15.42C9.76 15.42 11.16 14.64 11.16 12.62C11.16 10.98 9.88 9.52 7.68 9.52H2.7V15.42H7.72ZM25.2548 0.779999L26.9948 0.82L19.1348 17L17.4148 16.96L19.9748 11.82L14.6548 0.82H16.3948L20.8148 9.98L25.2548 0.779999ZM44.0414 2.4H37.2614V17H35.6214V2.4H28.8614V0.82H44.0414V2.4ZM59.06 2.7L49 17H47.08V0.82H48.72V15.12L58.74 0.82H60.7V17H59.06V2.7ZM66.5008 9.78L74.7008 0.82H76.9208L70.9408 7.36L77.6608 17H75.6808L69.8208 8.58L66.5008 12.2V17H64.8808V0.82H66.5008V9.78ZM84.8081 0.479999C87.5281 0.479999 88.6881 1.98 88.9681 3.98H87.4081C87.0281 2.58 85.9281 2.04 84.7881 2.12C82.8881 2.24 81.8481 3.44 81.4281 6.18C81.1081 8.2 81.1881 9.36 81.1881 9.36C81.1881 9.36 81.8481 7.08 85.2481 7.08C88.5681 7.08 89.5881 10.22 89.5881 11.88C89.5881 15.64 87.2081 17.28 85.2881 17.32C82.4481 17.4 79.6881 16.18 79.6881 9.6C79.6881 6.72 80.0681 4.5 80.8481 2.96C81.7081 1.28 82.9881 0.479999 84.8081 0.479999ZM85.0681 8.7C82.8881 8.7 81.5481 10 81.5081 11.62C81.4281 14.52 82.5681 15.76 85.1881 15.64C87.1881 15.54 88.2081 13.74 88.0881 11.72C87.9881 10.14 86.9281 8.7 85.0681 8.7ZM104.88 12.32H102.58V17H100.94V12.32H93.0995V10.36L100.32 0.82H102.58V10.68H104.88V12.32ZM100.94 10.68V2.1L94.4195 10.68H100.94ZM109.824 17H107.684V14.8H109.824V17ZM119.988 0.82C123.428 0.82 125.288 3.28 125.288 5.6C125.288 7.92 123.468 10.28 120.008 10.28H115.088V17H113.428V0.82H119.988ZM120.308 8.64C121.888 8.64 123.668 7.64 123.668 5.6C123.668 3.52 121.868 2.46 120.308 2.46H115.088V8.64H120.308ZM136.971 2.74C136.971 2.74 144.431 3.18 144.431 8.96C144.431 14.84 136.971 15.08 136.971 15.08V17H135.331V14.94C135.331 14.94 127.871 14.86 127.871 8.96C127.871 3.12 135.331 2.72 135.331 2.72V0.82H136.971V2.74ZM135.331 13.48V4.18C135.331 4.18 129.311 4.28 129.311 8.96C129.311 13.46 135.331 13.48 135.331 13.48ZM136.971 13.5C136.971 13.5 142.971 13.46 142.971 8.96C142.971 4.48 136.971 4.2 136.971 4.2V13.5Z" fill="black"/>
<path d="M4.164 22.23H4.668C4.422 23.592 3.402 24.096 2.442 24.096C1.05 24.096 0.156 23.106 0.156 21.57C0.156 20.79 0.39 20.136 0.828 19.686C1.236 19.272 1.806 19.044 2.442 19.044C3.582 19.044 4.386 19.698 4.638 20.796H4.134C3.876 19.878 3.144 19.536 2.442 19.536C1.56 19.536 0.648 20.112 0.648 21.57C0.648 23.076 1.56 23.604 2.442 23.604C3.354 23.604 3.972 23.118 4.164 22.23ZM13.355 21.492C14.075 21.6 14.267 22.182 14.267 22.722C14.267 23.49 13.781 24 12.659 24H10.757V19.146H12.593C13.439 19.146 13.973 19.806 13.973 20.514C13.973 20.826 13.823 21.33 13.355 21.492ZM12.449 19.626H11.243V21.282C11.633 21.282 12.149 21.282 12.443 21.282C13.115 21.282 13.475 21.078 13.475 20.46C13.475 19.974 13.139 19.626 12.449 19.626ZM12.749 23.526C13.361 23.526 13.781 23.292 13.781 22.686C13.781 22.194 13.397 21.756 12.737 21.756H11.243V23.526H12.749ZM21.049 19.62V21.162H23.383V21.636L21.049 21.624V23.532H23.821V24H20.563V19.146H23.821V19.62H21.049ZM34.0652 19.62H32.0312V24H31.5392V19.62H29.5112V19.146H34.0652V19.62ZM43.6107 22.23H44.1147C43.8687 23.592 42.8487 24.096 41.8887 24.096C40.4967 24.096 39.6027 23.106 39.6027 21.57C39.6027 20.79 39.8367 20.136 40.2747 19.686C40.6827 19.272 41.2527 19.044 41.8887 19.044C43.0287 19.044 43.8327 19.698 44.0847 20.796H43.5807C43.3227 19.878 42.5907 19.536 41.8887 19.536C41.0067 19.536 40.0947 20.112 40.0947 21.57C40.0947 23.076 41.0067 23.604 41.8887 23.604C42.8007 23.604 43.4187 23.118 43.6107 22.23ZM50.6897 21.834L53.1497 19.146H53.8157L52.0217 21.108L54.0377 24H53.4437L51.6857 21.474L50.6897 22.56V24H50.2037V19.146H50.6897V21.834ZM63.5978 19.71L60.5798 24H60.0038V19.146H60.4958V23.436L63.5018 19.146H64.0898V24H63.5978V19.71ZM73.8821 19.146H74.4701V24H73.9781V19.71L70.9601 24H70.3841V19.146H70.8761V23.436L73.8821 19.146ZM72.4301 19.05C71.8541 19.05 71.3441 18.636 71.3441 17.988H71.7341C71.7341 18.294 71.9501 18.666 72.4301 18.666C72.9041 18.666 73.1141 18.294 73.1141 17.988H73.5041C73.5041 18.636 73.0001 19.05 72.4301 19.05ZM91.9122 24V19.62H89.1522V24H88.6602V19.146H92.4042V24H91.9122ZM100.819 19.044C102.205 19.044 103.105 20.01 103.105 21.57C103.105 23.436 101.923 24.096 100.819 24.096C99.4266 24.096 98.5326 23.106 98.5326 21.57C98.5326 20.79 98.7666 20.136 99.2046 19.686C99.6126 19.272 100.183 19.044 100.819 19.044ZM100.819 23.604C101.941 23.604 102.607 22.872 102.607 21.57C102.607 20.058 101.695 19.536 100.819 19.536C99.9366 19.536 99.0246 20.112 99.0246 21.57C99.0246 23.076 99.9366 23.604 100.819 23.604ZM111.207 19.146C112.239 19.146 112.797 19.884 112.797 20.58C112.797 21.276 112.251 21.984 111.213 21.984H109.737V24H109.239V19.146H111.207ZM111.303 21.492C111.777 21.492 112.311 21.192 112.311 20.58C112.311 19.956 111.771 19.638 111.303 19.638H109.737V21.492H111.303ZM123.046 19.62H121.012V24H120.52V19.62H118.492V19.146H123.046V19.62ZM131.22 22.608H129.078L128.58 24H128.064L129.876 19.146H130.428L132.246 24H131.718L131.22 22.608ZM130.152 19.602L129.246 22.134H131.052L130.152 19.602ZM141.496 24V19.62H139.576L139.564 19.896C139.564 19.914 139.534 21.732 139.354 22.686C139.102 24 138.94 24 137.992 24C137.992 24 137.992 23.622 137.992 23.532C138.652 23.532 138.754 23.472 138.94 22.386C139.048 21.75 139.102 20.544 139.138 19.146H141.964V24H141.496Z" fill="black"/>
</svg>
